<?xml version="1.0" standalone="no"?>
<!DOCTYPE svg PUBLIC "-//W3C//DTD SVG 20010904//EN"
 "http://www.w3.org/TR/2001/REC-SVG-20010904/DTD/svg10.dtd">
<svg version="1.0" xmlns="http://www.w3.org/2000/svg"
 width="400.000000pt" height="400.000000pt" viewBox="0 0 400.000000 400.000000"
 preserveAspectRatio="xMidYMid meet">
<metadata>
Created by potrace 1.14, written by Peter Selinger 2001-2017
</metadata>
<g transform="translate(0.000000,400.000000) scale(0.100000,-0.100000)"
fill="#000000" stroke="none">
<path d="M0 2000 l0 -2000 2000 0 2000 0 0 2000 0 2000 -2000 0 -2000 0 0
-2000z m2197 828 l263 -133 0 -187 0 -187 -252 124 c-138 69 -257 130 -265
136 -11 10 -13 -23 -13 -192 l0 -204 200 -100 200 -100 0 -182 c0 -101 -3
-183 -6 -183 -6 0 -146 67 -316 151 l-78 38 0 -395 c0 -218 -4 -394 -8 -392
-5 2 -88 66 -185 143 l-176 140 2 684 2 685 178 143 c98 79 181 143 185 143 4
1 125 -59 269 -132z"/>
</g>
</svg>
