<svg width="30" height="30" viewBox="0 0 30 30" fill="none" xmlns="http://www.w3.org/2000/svg">
<path d="M8.35714 10.4991H10.8893C10.9763 10.9957 11.2356 11.4458 11.6217 11.7701C12.0077 12.0944 12.4958 12.2722 13 12.2722C13.5042 12.2722 13.9923 12.0944 14.3783 11.7701C14.7644 11.4458 15.0237 10.9957 15.1107 10.4991H22.6429C22.7376 10.4991 22.8284 10.4615 22.8954 10.3945C22.9624 10.3275 23 10.2367 23 10.142C23 10.0472 22.9624 9.9564 22.8954 9.88942C22.8284 9.82244 22.7376 9.78482 22.6429 9.78482H15.1107C15.0237 9.28818 14.7644 8.83813 14.3783 8.51382C13.9923 8.18951 13.5042 8.01172 13 8.01172C12.4958 8.01172 12.0077 8.18951 11.6217 8.51382C11.2356 8.83813 10.9763 9.28818 10.8893 9.78482H8.35714C8.26242 9.78482 8.17158 9.82244 8.1046 9.88942C8.03763 9.9564 8 10.0472 8 10.142C8 10.2367 8.03763 10.3275 8.1046 10.3945C8.17158 10.4615 8.26242 10.4991 8.35714 10.4991ZM13 8.71339C13.2825 8.71339 13.5587 8.79717 13.7937 8.95415C14.0286 9.11112 14.2117 9.33423 14.3198 9.59527C14.428 9.85631 14.4562 10.1435 14.4011 10.4207C14.346 10.6978 14.2099 10.9523 14.0102 11.1521C13.8104 11.3519 13.5558 11.488 13.2787 11.5431C13.0016 11.5982 12.7143 11.5699 12.4533 11.4618C12.1923 11.3537 11.9692 11.1706 11.8122 10.9356C11.6552 10.7007 11.5714 10.4245 11.5714 10.142C11.5714 9.76308 11.7219 9.39972 11.9898 9.13181C12.2578 8.8639 12.6211 8.71339 13 8.71339ZM22.6429 15.142H20.1107C20.0237 14.6453 19.7644 14.1953 19.3783 13.871C18.9923 13.5467 18.5042 13.3689 18 13.3689C17.4958 13.3689 17.0077 13.5467 16.6217 13.871C16.2356 14.1953 15.9763 14.6453 15.8893 15.142H8.35714C8.26242 15.142 8.17158 15.1796 8.1046 15.2466C8.03763 15.3135 8 15.4044 8 15.4991C8 15.5938 8.03763 15.6847 8.1046 15.7516C8.17158 15.8186 8.26242 15.8562 8.35714 15.8562H15.8893C15.9763 16.3529 16.2356 16.8029 16.6217 17.1272C17.0077 17.4516 17.4958 17.6293 18 17.6293C18.5042 17.6293 18.9923 17.4516 19.3783 17.1272C19.7644 16.8029 20.0237 16.3529 20.1107 15.8562H22.6429C22.7376 15.8562 22.8284 15.8186 22.8954 15.7516C22.9624 15.6847 23 15.5938 23 15.4991C23 15.4044 22.9624 15.3135 22.8954 15.2466C22.8284 15.1796 22.7376 15.142 22.6429 15.142ZM18 16.9277C17.7175 16.9277 17.4413 16.8439 17.2063 16.6869C16.9714 16.5299 16.7883 16.3068 16.6802 16.0458C16.572 15.7848 16.5438 15.4975 16.5989 15.2204C16.654 14.9433 16.7901 14.6887 16.9898 14.489C17.1896 14.2892 17.4442 14.1531 17.7213 14.098C17.9984 14.0429 18.2857 14.0711 18.5467 14.1793C18.8077 14.2874 19.0308 14.4705 19.1878 14.7054C19.3448 14.9404 19.4286 15.2166 19.4286 15.4991C19.4286 15.878 19.2781 16.2413 19.0102 16.5093C18.7422 16.7772 18.3789 16.9277 18 16.9277ZM22.6429 20.4991H15.1107C15.0237 20.0025 14.7644 19.5524 14.3783 19.2281C13.9923 18.9038 13.5042 18.726 13 18.726C12.4958 18.726 12.0077 18.9038 11.6217 19.2281C11.2356 19.5524 10.9763 20.0025 10.8893 20.4991H8.35714C8.26242 20.4991 8.17158 20.5367 8.1046 20.6037C8.03763 20.6707 8 20.7615 8 20.8562C8 20.951 8.03763 21.0418 8.1046 21.1088C8.17158 21.1758 8.26242 21.2134 8.35714 21.2134H10.8893C10.9763 21.71 11.2356 22.1601 11.6217 22.4844C12.0077 22.8087 12.4958 22.9865 13 22.9865C13.5042 22.9865 13.9923 22.8087 14.3783 22.4844C14.7644 22.1601 15.0237 21.71 15.1107 21.2134H22.6429C22.7376 21.2134 22.8284 21.1758 22.8954 21.1088C22.9624 21.0418 23 20.951 23 20.8562C23 20.7615 22.9624 20.6707 22.8954 20.6037C22.8284 20.5367 22.7376 20.4991 22.6429 20.4991ZM13 22.2848C12.7175 22.2848 12.4413 22.201 12.2063 22.0441C11.9714 21.8871 11.7883 21.664 11.6802 21.4029C11.572 21.1419 11.5438 20.8547 11.5989 20.5775C11.654 20.3004 11.7901 20.0459 11.9898 19.8461C12.1896 19.6463 12.4442 19.5102 12.7213 19.4551C12.9984 19.4 13.2857 19.4283 13.5467 19.5364C13.8077 19.6445 14.0308 19.8276 14.1878 20.0626C14.3448 20.2975 14.4286 20.5737 14.4286 20.8562C14.4286 21.2351 14.2781 21.5985 14.0102 21.8664C13.7422 22.1343 13.3789 22.2848 13 22.2848Z" fill="#777777"/>
</svg>