<svg width="30" height="28" viewBox="0 0 28 26" fill="none" xmlns="http://www.w3.org/2000/svg">
<path d="M14.9985 0.666748C19.1168 0.666748 22.4553 4.00063 22.4553 8.11318C22.4553 10.6273 21.1973 12.9197 19.1776 14.2668L17.0722 15.9068L16.0308 15.0974L18.4277 13.2315C20.1343 12.0915 21.1748 10.1953 21.1748 8.11318C21.1748 4.70682 18.4096 1.94542 14.9985 1.94542C11.5875 1.94542 8.82226 4.70682 8.82226 8.11318C8.82226 10.1871 9.85414 12.0944 11.5702 13.2585L14.984 15.9137L14.9908 15.9081L16.0322 16.7174L16.0256 16.7238L29.6668 27.3334H27.5762L25.9308 26.0534L25.939 26.0547L14.9849 17.535L4.05488 26.0547L23.8468 26.0534L25.4922 27.3334H0.333496L13.9434 16.7247L10.8174 14.292C8.78718 12.9167 7.54183 10.6149 7.54183 8.11318C7.54183 4.00063 10.8803 0.666748 14.9985 0.666748Z" fill="#1A1A1A"/>
</svg>
