<svg width="24" height="20" viewBox="0 0 24 20" fill="none" xmlns="http://www.w3.org/2000/svg">
<path d="M21.702 1.99297C23.8572 4.14823 23.8253 7.67455 21.6306 9.86925L11.8766 19.6232L8.11607 15.8627C8.09216 15.8388 8.06851 15.8147 8.04512 15.7905C8.02131 15.7675 7.99766 15.7443 7.97417 15.7208L2.2979 10.0445C0.142649 7.88928 0.174621 4.36295 2.36931 2.16825C4.56401 -0.0264385 8.09034 -0.0584104 10.2456 2.09684L10.3729 2.22388L10.3365 2.2605L12.6779 4.55988L12.0071 5.23112L9.5592 2.78323C7.77622 1.00025 4.85898 1.0267 3.04337 2.84231C1.22776 4.65792 1.20131 7.57516 2.98429 9.35814L8.71184 15.0852C8.71979 15.093 8.72978 15.1028 8.7431 15.1159L8.76488 15.1384L11.8889 18.2628L20.9565 9.19519C22.7721 7.37958 22.7986 4.46234 21.0156 2.67936C19.2326 0.89638 16.3154 0.92283 14.4998 2.73844L13.3579 3.87988L12.6769 3.21188L13.8257 2.06438C16.0204 -0.13031 19.5467 -0.162282 21.702 1.99297Z" fill="#1A1A1A"/>
</svg>
