<svg width="30" height="30" viewBox="0 0 30 30" fill="none" xmlns="http://www.w3.org/2000/svg">
<path fill-rule="evenodd" clip-rule="evenodd" d="M10.7333 0C16.6612 0 21.4667 4.80548 21.4667 10.7333C21.4667 13.4334 20.4697 15.9005 18.8238 17.7868L29.1322 28.0946L28.11 29.1168L17.8028 18.8099C17.8002 18.8121 17.7976 18.8144 17.795 18.8167L16.7069 17.7305C18.6815 16.0431 19.9333 13.5344 19.9333 10.7333C19.9333 5.65231 15.8144 1.53333 10.7333 1.53333C5.65231 1.53333 1.53333 5.65231 1.53333 10.7333C1.53333 15.8144 5.65231 19.9333 10.7333 19.9333C12.4881 19.9333 14.1281 19.4421 15.5233 18.5896L16.6338 19.7007C14.9408 20.817 12.9129 21.4667 10.7333 21.4667C4.80548 21.4667 0 16.6612 0 10.7333C0 4.80548 4.80548 0 10.7333 0Z" fill="#1A1A1A"/>
</svg>
